<svg xmlns="http://www.w3.org/2000/svg" width="960" height="540" viewBox="0 0 960 540">
<rect width="960" height="540" fill="#101820"/>
<rect x="48" y="48" width="864" height="444" rx="10" fill="#17212b"/>
<rect x="48" y="48" width="864" height="8" fill="#2dd4bf"/>
<text x="72" y="104" font-family="Arial" font-size="34" font-weight="700" fill="#ffffff">Service Account Governance Guard</text>
<text x="72" y="138" font-family="Arial" font-size="18" fill="#cbd5e1">issue/retain 1 | review 2 | deny/revoke 1</text>
<text x="96" y="158" font-family="Arial" font-size="14" fill="#94a3b8">account</text>
<text x="470" y="158" font-family="Arial" font-size="14" fill="#94a3b8">decision</text>
<text x="736" y="158" font-family="Arial" font-size="14" fill="#94a3b8">risk</text>
<g>
  <rect x="72" y="168" width="816" height="44" rx="6" fill="#0f766e" opacity="0.92"/>
  <text x="96" y="196" font-family="Arial" font-size="20" fill="#ffffff">svc-notebook-rerun</text>
  <text x="470" y="196" font-family="Arial" font-size="20" fill="#ffffff">issue_or_retain</text>
  <text x="736" y="196" font-family="Arial" font-size="20" fill="#ffffff">24</text>
</g>
<g>
  <rect x="72" y="232" width="816" height="44" rx="6" fill="#b45309" opacity="0.92"/>
  <text x="96" y="260" font-family="Arial" font-size="20" fill="#ffffff">tok-orcid-profile-sync</text>
  <text x="470" y="260" font-family="Arial" font-size="20" fill="#ffffff">hold_for_owner_review</text>
  <text x="736" y="260" font-family="Arial" font-size="20" fill="#ffffff">27</text>
</g>
<g>
  <rect x="72" y="296" width="816" height="44" rx="6" fill="#991b1b" opacity="0.92"/>
  <text x="96" y="324" font-family="Arial" font-size="20" fill="#ffffff">tok-vendor-export</text>
  <text x="470" y="324" font-family="Arial" font-size="20" fill="#ffffff">deny_or_revoke</text>
  <text x="736" y="324" font-family="Arial" font-size="20" fill="#ffffff">369</text>
</g>
<g>
  <rect x="72" y="360" width="816" height="44" rx="6" fill="#b45309" opacity="0.92"/>
  <text x="96" y="388" font-family="Arial" font-size="20" fill="#ffffff">svc-manuscript-release</text>
  <text x="470" y="388" font-family="Arial" font-size="20" fill="#ffffff">hold_for_owner_review</text>
  <text x="736" y="388" font-family="Arial" font-size="20" fill="#ffffff">94</text>
</g>
</svg>
